<svg xmlns="http://www.w3.org/2000/svg" xmlns:xlink="http://www.w3.org/1999/xlink" viewBox="0 0 1365.06 772.43"><defs><style>.cls-1{fill:url(#linear-gradient);}.cls-2{fill:url(#linear-gradient-2);}.cls-3{fill:url(#linear-gradient-3);}.cls-4{fill:url(#linear-gradient-4);}.cls-5{fill:url(#linear-gradient-5);}.cls-6{fill:url(#linear-gradient-6);}.cls-7{fill:url(#linear-gradient-7);}.cls-8{fill:url(#linear-gradient-8);}.cls-9{fill:url(#linear-gradient-9);}.cls-10{fill:url(#linear-gradient-10);}</style><linearGradient id="linear-gradient" x1="87.82" y1="615.77" x2="1436.54" y2="622.69" gradientUnits="userSpaceOnUse"><stop offset="0" stop-color="#f2dfc3"/><stop offset="0.42" stop-color="#d3a24f"/><stop offset="1" stop-color="#c28710"/></linearGradient><linearGradient id="linear-gradient-2" x1="757.09" y1="395.32" x2="340.92" y2="508.52" xlink:href="#linear-gradient"/><linearGradient id="linear-gradient-3" x1="743.63" y1="345.84" x2="327.46" y2="459.05" xlink:href="#linear-gradient"/><linearGradient id="linear-gradient-4" x1="676.68" y1="99.75" x2="260.52" y2="212.96" xlink:href="#linear-gradient"/><linearGradient id="linear-gradient-5" x1="727.42" y1="286.25" x2="311.25" y2="399.46" xlink:href="#linear-gradient"/><linearGradient id="linear-gradient-6" x1="710.24" y1="223.11" x2="294.08" y2="336.32" xlink:href="#linear-gradient"/><linearGradient id="linear-gradient-7" x1="692.21" y1="156.84" x2="276.05" y2="270.04" xlink:href="#linear-gradient"/><linearGradient id="linear-gradient-8" x1="205.81" y1="352.63" x2="397.44" y2="344.97" gradientUnits="userSpaceOnUse"><stop offset="0.01" stop-color="#1d89c1"/><stop offset="0.4" stop-color="#1d7cb0"/><stop offset="1" stop-color="#1c628f"/></linearGradient><linearGradient id="linear-gradient-9" x1="640.48" y1="337.84" x2="644.91" y2="337.84" gradientUnits="userSpaceOnUse"><stop offset="0.01" stop-color="#ebc17d"/><stop offset="0.45" stop-color="#dfb77c"/><stop offset="1" stop-color="#c08329"/></linearGradient><linearGradient id="linear-gradient-10" x1="648.97" y1="69.33" x2="1212.53" y2="596.52" xlink:href="#linear-gradient"/></defs><g id="Layer_1" data-name="Layer 1"><path class="cls-1" d="M602.64,652.58a4,4,0,0,1-3.38-1.71,3.83,3.83,0,0,1,0-4,14.66,14.66,0,0,1,4.4-4.75,40.62,40.62,0,0,1,8.39-4.61,71.57,71.57,0,0,1,11.62-3.71l.33-.08.2-.26c.26-.34,1.12-1.33,2.58-3s3.23-3.67,5.22-6l-1.27-1.25a60.11,60.11,0,0,1-6.44,3.93,47.28,47.28,0,0,1-5.94,2.64,19.94,19.94,0,0,1-4.81,1.13l-.85,0a5.11,5.11,0,0,1-2.2-.41,2.63,2.63,0,0,1-1.27-1.53,4.9,4.9,0,0,1-.05-2.73,11.61,11.61,0,0,1,1.57-3.65,19.75,19.75,0,0,1,3.48-4.06l-1.15-1.35c-.47.29-3.1,2-3.8,2.44l-2,1.25c-.33.21-.58.34-.83.48l-.4.24a96.45,96.45,0,0,1-14,7.44,37.23,37.23,0,0,1-9.68,2.74q-.93.09-1.77.09a7.91,7.91,0,0,1-3.88-.82,4.5,4.5,0,0,1-2.28-3.08,7.87,7.87,0,0,1-.09-2.21l.14-1.64L573,625c-1.23.65-2.51,1.31-3.89,2-2,1-4,1.85-6,2.67a39.29,39.29,0,0,1-5.84,1.87,19.15,19.15,0,0,1-4.18.52l-.83,0a4.79,4.79,0,0,1-3.19-1.28,5.06,5.06,0,0,1-1.52-3.11,11.09,11.09,0,0,1,.56-4.9l.82-2.58-2.27,1.63c-2.63,1.9-5.3,3.66-8,5.24a48.2,48.2,0,0,1-7.49,3.69,19.71,19.71,0,0,1-6.15,1.41h0a4.63,4.63,0,0,1-3.73-1.36,3.37,3.37,0,0,1-1-2.41,9.44,9.44,0,0,1,.58-3.19,13.54,13.54,0,0,1,1.55-3.06,13.26,13.26,0,0,1,1.75-2.18L523,618.62l-2.74,1.74c-.88.55-1.7,1-2.47,1.49l-.33.15c-1.26.8-2.74,1.71-4.49,2.73s-3.79,2.12-5.82,3.14a68.1,68.1,0,0,1-6.26,2.77,28.83,28.83,0,0,1-6,1.65,15.13,15.13,0,0,1-2.26.18,10.65,10.65,0,0,1-2.6-.31,5,5,0,0,1-3.09-2.33,4.5,4.5,0,0,1-.66-3.2,10.1,10.1,0,0,1,1.37-3.65,21.39,21.39,0,0,1,2.78-3.61,39.22,39.22,0,0,1,3.45-3.21c1.17-1,2.27-1.8,3.3-2.49a22.73,22.73,0,0,1,2.32-1.46l.69-.35-.25-.69a1.34,1.34,0,0,0-1.42-.82,9.76,9.76,0,0,0-1.36.12c-.49.08-1,.15-1.66.22a8.69,8.69,0,0,1-1,.06l-.73,0-.58,0-.29.48a24.53,24.53,0,0,1-4.81,5.48,41.08,41.08,0,0,1-7.39,5.2,4.9,4.9,0,0,1-2.38.7,2.7,2.7,0,0,1-1.84-.55c-.11-.11-.37-.36-.11-1.13.15-.43.69-1.16,2.4-2.19a25.27,25.27,0,0,0,2.61-1.7c.93-.67,1.86-1.38,2.81-2.13s1.88-1.52,2.78-2.32a25.57,25.57,0,0,0,2.44-2.45l1.22-1.42H489.1a7.45,7.45,0,0,1-1.34-2.5,4.35,4.35,0,0,1-.11-2.43,3,3,0,0,1,1.19-1.66,4.2,4.2,0,0,1,2.49-.67,2.22,2.22,0,0,1,1.48.39,5.2,5.2,0,0,1,1,1.2l.86,1.41a2.26,2.26,0,0,0,2,1.06,41.2,41.2,0,0,0,4.65-.3c1.74-.2,3.63-.47,5.69-.82a7.55,7.55,0,0,1,1.21-.11,3.63,3.63,0,0,1,1.73.38,2.71,2.71,0,0,1,1.38,1.5,2.9,2.9,0,0,1-.14,2.11,4.32,4.32,0,0,1-2,2c-.95.56-2,1.23-3.22,2s-2.39,1.64-3.6,2.53-2.38,1.83-3.49,2.78a33,33,0,0,0-2.91,2.77,9.8,9.8,0,0,0-1.79,2.6,2.19,2.19,0,0,0,.24,2.57,3.65,3.65,0,0,0,2.83,1.08,7.91,7.91,0,0,0,1.14-.09,23.81,23.81,0,0,0,5.27-1.58c1.91-.79,4-1.75,6.11-2.88s4.19-2.27,6-3.39l2.42-1.39q1.63-1,3.78-2.13l4.58-2.55c1.63-.92,3.2-1.83,4.73-2.74s2.91-1.77,4.16-2.56a33,33,0,0,0,3.07-2.13,8.17,8.17,0,0,1,3.51-1.62,12.68,12.68,0,0,1,2.54-.29,7.08,7.08,0,0,1,1.15.08,3,3,0,0,1,2,.88c.28.34-.14,1-.54,1.43a23.83,23.83,0,0,1-2.65,2.57q-1.86,1.62-4.13,3.49t-4.59,3.85c-1.56,1.31-2.94,2.56-4.15,3.73a27.49,27.49,0,0,0-2.87,3.12c-1.17,1.54-.85,2.46-.38,3a1.65,1.65,0,0,0,1.34.55,5.35,5.35,0,0,0,2.09-.56,39.14,39.14,0,0,0,4.74-2.53c1.84-1.11,3.87-2.44,6.11-4s4.47-3.07,6.74-4.65,4.48-3.11,6.62-4.61,4-2.78,5.76-3.85a10.29,10.29,0,0,1,4.57-2.12,11.83,11.83,0,0,1,2-.17,6.57,6.57,0,0,1,1.8.22c1,.29,1.25.73,1.32,1s-.42,1.06-1.4,1.74a68.75,68.75,0,0,0-6.92,5.54,50.92,50.92,0,0,0-5.1,5.34,17.17,17.17,0,0,0-2.8,4.56c-.6,1.61-.47,2.8.41,3.55a3.16,3.16,0,0,0,2.12.65,9.54,9.54,0,0,0,2-.26,39.27,39.27,0,0,0,5.54-1.78c2-.79,4.06-1.71,6.14-2.73s3.81-1.89,5.23-2.63l.26-.12.17-.25.24-.41c.35-.62.7-1.23,1.14-1.86a159.35,159.35,0,0,1,13.82-17.4,79.49,79.49,0,0,1,11.22-10.22c3.18-2.27,5.88-3.62,8-4a8.5,8.5,0,0,1,1.6-.16,3.59,3.59,0,0,1,2.64.9,2.28,2.28,0,0,1,.27,2.68,16.44,16.44,0,0,1-3.05,4.58,66.91,66.91,0,0,1-5.72,5.64c-2.29,2-4.71,4.09-7.21,6.1s-5.06,4.06-7.59,6.05-4.82,3.84-6.86,5.51a25.6,25.6,0,0,0-3.31,5.31c-.78,1.81-.71,3.16.21,4a4.09,4.09,0,0,0,3,1,8.58,8.58,0,0,0,1.6-.16,31.39,31.39,0,0,0,5.74-1.75,61.61,61.61,0,0,0,6-2.85q2.93-1.59,4.88-2.62l2.47-1.42c1.09-.64,2.35-1.35,3.77-2.13l4.59-2.55c1.63-.92,3.2-1.83,4.73-2.74s2.91-1.77,4.16-2.56a34.43,34.43,0,0,0,3.07-2.13,8.12,8.12,0,0,1,3.51-1.62,12.61,12.61,0,0,1,2.54-.29,7.08,7.08,0,0,1,1.15.08,3,3,0,0,1,2,.88c.27.34-.14,1-.54,1.43a20.76,20.76,0,0,1-2.67,2.52q-1.92,1.59-4.14,3.39l-4.54,3.65a51.94,51.94,0,0,0-4,3.49,12.8,12.8,0,0,0-2.35,2.91,1.85,1.85,0,0,0-.16,1.7,1.76,1.76,0,0,0,1.25.93,3.45,3.45,0,0,0,.87.11,7.39,7.39,0,0,0,2.85-.71,30.43,30.43,0,0,0,4.65-2.54c1.68-1.1,3.5-2.35,5.44-3.76l5.88-4.28q3-2.17,5.85-4.16a60.27,60.27,0,0,1,5.24-3.27,8.84,8.84,0,0,1,3.29-1.07,10.79,10.79,0,0,1,1.35-.09,7,7,0,0,1,1.65.18,2.5,2.5,0,0,1,1.42.72h0s0,.19-.47.54a51.6,51.6,0,0,0-4.19,3.91q-2.48,2.52-5.3,5.59t-5.73,6.32c-1.94,2.18-3.71,4.19-5.33,6.07l1.11,1.34,8.62-3.92c1.17-.48,2.49-1.05,3.91-1.7s2.77-1.29,4-1.93l3.4-1.74c1-.53,1.78-.92,2.21-1.17a6.13,6.13,0,0,1,2.76-.75,2.08,2.08,0,0,1,1.54.45c.09.09.34.35,0,1.12-.17.45-.73,1.24-2.41,2.39-.56.38-1.34.86-2.33,1.43s-2.17,1.24-3.47,1.95-2.68,1.41-4.17,2.11-3,1.38-4.58,2L628,637.16l-.14.15a60.21,60.21,0,0,1-9.79,9,42.11,42.11,0,0,1-8.84,5,17.19,17.19,0,0,1-6,1.33Zm106.29-5.87a26.5,26.5,0,0,1-5.83-.6,15.85,15.85,0,0,1-8.14-4.24,10.34,10.34,0,0,1-3-6.91,14.15,14.15,0,0,1,2.79-8.32c2-2.95,5.24-5.75,9.68-8.32a9.74,9.74,0,0,1,3.4-1.29,10.56,10.56,0,0,1,1.73-.15,8.61,8.61,0,0,1,1.36.11,6.4,6.4,0,0,1,2.32.8,2.47,2.47,0,0,1,1.09,1.12,1.16,1.16,0,0,1-.11,1.05,3.65,3.65,0,0,1-1.8,1.25,29.87,29.87,0,0,0-9.41,5.72,12.45,12.45,0,0,0-3.85,6.18,6.15,6.15,0,0,0,1.58,5.48,10.27,10.27,0,0,0,6.32,2.91,17.38,17.38,0,0,0,2.57.18,32.9,32.9,0,0,0,7.35-1,51.47,51.47,0,0,0,13-5.41,50.54,50.54,0,0,0,8.66-6,25.94,25.94,0,0,0,5.19-6,9.77,9.77,0,0,0,1.6-5.38,5,5,0,0,0-2.4-4.07,11,11,0,0,0-6-1.37,32.6,32.6,0,0,0-9.18,1.67,23.64,23.64,0,0,1-6.59,1.18,10.74,10.74,0,0,1-1.3-.07,5.6,5.6,0,0,1-3.95-1.86,5.18,5.18,0,0,1-.78-4.06,14.81,14.81,0,0,1,2.49-5.82,32.85,32.85,0,0,1,6-6.46,47.73,47.73,0,0,1,9.3-6.12,45.09,45.09,0,0,1,12-4.41,27.52,27.52,0,0,1,5-.51,15.1,15.1,0,0,1,3.37.35,8.59,8.59,0,0,1,4.82,2.65,6.44,6.44,0,0,1,1.64,4.19,8.13,8.13,0,0,1-1.57,4.69,12.84,12.84,0,0,1-5,4.05,11.27,11.27,0,0,1-4.71,1.32h-.35a5.38,5.38,0,0,1-3-.88,1.25,1.25,0,0,1-.63-1.31c.09-.46.64-.84,1.64-1.13a9.43,9.43,0,0,0,3.49-1.82,4.68,4.68,0,0,0,1.65-2.55,2.91,2.91,0,0,0-.76-2.57,4.6,4.6,0,0,0-3.22-1.23h-.51a18.17,18.17,0,0,0-4.63.75,37.23,37.23,0,0,0-7.32,3.1,41.86,41.86,0,0,0-7.6,5,18.9,18.9,0,0,0-4.31,4.7,3,3,0,0,0-.46,2.48,2.22,2.22,0,0,0,1.21,1.26,3.54,3.54,0,0,0,1.51.28,17.25,17.25,0,0,0,5.26-1.2,27,27,0,0,1,8.67-1.63,16.66,16.66,0,0,1,1.75.09,14.16,14.16,0,0,1,7.35,2.61,9.88,9.88,0,0,1,3.6,5.61,12.78,12.78,0,0,1-.79,7.66A27.4,27.4,0,0,1,745,631.3a49,49,0,0,1-12.45,8.76,56.51,56.51,0,0,1-16.67,6A43,43,0,0,1,708.93,646.71Zm-273.66-.07a6.49,6.49,0,0,1-3.32-1.3,3.58,3.58,0,0,1-1.4-3.11,16.08,16.08,0,0,1,2.17-7.36,59.59,59.59,0,0,1,5.71-8.66,110.81,110.81,0,0,1,7.85-8.93c2.94-3,5.83-5.85,8.58-8.43s5.41-5,7.84-7,4.32-3.66,5.67-4.79a7.77,7.77,0,0,1,3.67-1.79,9.94,9.94,0,0,1,1.73-.16,5.69,5.69,0,0,1,1.49.18,2,2,0,0,1,1.37.89c.11.23-.09.55-.61,1-1.69,1.3-3.79,3.11-6.44,5.55s-5.34,5.07-8.21,8-5.79,6.06-8.65,9.3-5.45,6.41-7.65,9.4a55.57,55.57,0,0,0-5.17,8.28c-1.3,2.68-1.7,4.78-1.22,6.43.33,1.23-.11,1.7-.53,2a4.13,4.13,0,0,1-2.3.63ZM811,632.47a10.65,10.65,0,0,1-2.6-.31,5,5,0,0,1-3.09-2.33,4.55,4.55,0,0,1-.67-3.2A10.32,10.32,0,0,1,806,623a20.88,20.88,0,0,1,2.78-3.61,39.22,39.22,0,0,1,3.45-3.21c1.17-1,2.27-1.8,3.3-2.49a22.73,22.73,0,0,1,2.32-1.46l.69-.35-.25-.69a1.35,1.35,0,0,0-1.43-.82,9.89,9.89,0,0,0-1.35.12c-.49.08-1,.15-1.66.22a8.69,8.69,0,0,1-1,.06l-.73,0-.58,0-.29.48a24.78,24.78,0,0,1-4.81,5.48,39.79,39.79,0,0,1-5.86,4.24,10,10,0,0,1-1.44,1,102.78,102.78,0,0,1-15.79,7,54,54,0,0,1-11.83,2.73c-.85.07-1.66.11-2.42.11a14.42,14.42,0,0,1-5.32-.86,7,7,0,0,1-3.87-3.2,7.36,7.36,0,0,1-.44-5,18.2,18.2,0,0,1,3.15-6.56,33.27,33.27,0,0,1,7.88-8.12,25.35,25.35,0,0,1,7.77-3.81,15.14,15.14,0,0,1,3.83-.54,9.91,9.91,0,0,1,2.42.28,5.75,5.75,0,0,1,3.64,2.27,5.12,5.12,0,0,1,.88,3,7.92,7.92,0,0,1-1,3.7,13.68,13.68,0,0,1-3.32,3.84,20.15,20.15,0,0,1-5.87,3.23,10.32,10.32,0,0,1-3.48.79h0a8.06,8.06,0,0,1-2.61-.35,4.67,4.67,0,0,1-1.76-1,4.73,4.73,0,0,1-1-1.43l-.61-1.38-1,1.18a16.17,16.17,0,0,0-2.52,4,3.36,3.36,0,0,0,.25,3.67c.88,1.17,2.54,1.77,4.89,1.77h.49a37.22,37.22,0,0,0,8-1.29,75.83,75.83,0,0,0,9.17-3.06,67.52,67.52,0,0,0,8.46-4.09,26.15,26.15,0,0,0,2.62-1.71c.93-.67,1.86-1.38,2.81-2.13s1.88-1.52,2.78-2.32a25.57,25.57,0,0,0,2.44-2.45l1.22-1.42h-1.5a7.31,7.31,0,0,1-1.35-2.5,4.35,4.35,0,0,1-.11-2.43,3,3,0,0,1,1.19-1.66,4.2,4.2,0,0,1,2.49-.67,2.22,2.22,0,0,1,1.48.39,5.2,5.2,0,0,1,1,1.2l.86,1.41a2.26,2.26,0,0,0,2,1.06,41.34,41.34,0,0,0,4.65-.3c1.74-.2,3.63-.47,5.69-.82a7.55,7.55,0,0,1,1.21-.11,3.63,3.63,0,0,1,1.73.38,2.71,2.71,0,0,1,1.38,1.5,2.9,2.9,0,0,1-.14,2.11,4.32,4.32,0,0,1-2,2c-1,.56-2,1.23-3.22,2s-2.39,1.64-3.6,2.53-2.38,1.83-3.5,2.78a34.24,34.24,0,0,0-2.9,2.77,9.8,9.8,0,0,0-1.79,2.6,2.19,2.19,0,0,0,.24,2.57,3.65,3.65,0,0,0,2.83,1.08,7.91,7.91,0,0,0,1.14-.09,23.81,23.81,0,0,0,5.27-1.58c1.91-.79,4-1.75,6.11-2.88s4.14-2.24,6-3.38l2.43-1.4c1.09-.64,2.35-1.35,3.77-2.13l4.59-2.55c1.63-.92,3.2-1.83,4.73-2.74l4.19-2.56a29.91,29.91,0,0,0,3.11-2.13,7.9,7.9,0,0,1,3.5-1.58,12.88,12.88,0,0,1,2.51-.27,8.22,8.22,0,0,1,1.24.09,3,3,0,0,1,2,.85c.27.34-.31,1.09-.57,1.39q-2.34,2.58-4.82,5.55c-1.65,2-3.12,3.91-4.37,5.75a25.93,25.93,0,0,0-2.75,5.13c-.67,1.8-.54,3.19.39,4.13a2.26,2.26,0,0,0,1.69.62,6.26,6.26,0,0,0,1.9-.35,28.64,28.64,0,0,0,4.86-2.13c1.83-1,3.81-2.17,5.88-3.56s4.07-2.86,6-4.4l.43-.35-.13-.52a11.08,11.08,0,0,1-.26-4.78,9.75,9.75,0,0,1,1.5-3.84,8.15,8.15,0,0,1,2.79-2.53,7.49,7.49,0,0,1,3.68-.91,5.92,5.92,0,0,1,3.33.82,3.62,3.62,0,0,1,1.53,2.07,5.46,5.46,0,0,1-.08,3,8.12,8.12,0,0,1-1.73,3.13q-.86.94-1.71,1.86c-.56.6-1.15,1.19-1.76,1.77l-.75.71.85.61a13.37,13.37,0,0,0,2.28,1.27,11.76,11.76,0,0,0,2.69.8,11.11,11.11,0,0,0,1.91.16c.32,0,.64,0,1,0a6.74,6.74,0,0,0,2.9-.9c.63-.33,1.38-.77,2.26-1.3l6-3.5,3.09-1.84c1.17-1.18,2.23-2.21,3.36-3.26a43.65,43.65,0,0,1,3.76-3.07,11,11,0,0,1,4.54-2.05,11.67,11.67,0,0,1,2-.19,6,6,0,0,1,1.77.24c1,.32,1.27.78,1.34,1.09s-.42,1.05-1.4,1.73a69.87,69.87,0,0,0-6.92,5.54,53.92,53.92,0,0,0-5.13,5.34,17.19,17.19,0,0,0-2.85,4.52c-.76,2-.14,3,.52,3.54a3.12,3.12,0,0,0,2.09.63,9.54,9.54,0,0,0,2-.26,37.69,37.69,0,0,0,5.58-1.82c2-.82,4.09-1.72,6.17-2.72s3.82-1.86,5.24-2.6l.26-.13.17-.27a26.78,26.78,0,0,1,4.35-6.13,30.94,30.94,0,0,1,7.19-5.59,24.1,24.1,0,0,1,8.85-3,12.75,12.75,0,0,1,1.81-.13,9.12,9.12,0,0,1,2.59.35,5.48,5.48,0,0,1,2.73,1.66,3.88,3.88,0,0,1,.82,2.76,7.55,7.55,0,0,1-1.5,3.84,6.83,6.83,0,0,1-2.16,2,7.33,7.33,0,0,1-2.42.88,6.72,6.72,0,0,1-1.07.09,4.54,4.54,0,0,1-1.06-.11,2.88,2.88,0,0,1-1.29-.58c-.23-.22-.2-.34-.18-.42s.08-.26.92-.66a7.28,7.28,0,0,0,1.71-1.14,7.05,7.05,0,0,0,1.24-1.39,2.33,2.33,0,0,0,.45-1.64c0-.28-.33-1.17-1.78-1.17a10.87,10.87,0,0,0-4.91,1.36,26.2,26.2,0,0,0-4.84,3.29,34.56,34.56,0,0,0-4.14,4.25,17.46,17.46,0,0,0-2.71,4.36,4.82,4.82,0,0,0-.23,3.81c.52,1.19,1.81,1.8,3.83,1.8a22.23,22.23,0,0,0,5.58-.88c2.13-.58,4.32-1.3,6.51-2.14s4.35-1.72,6.43-2.64,3.81-1.75,5.2-2.51l.23-.12.13-.22a25.74,25.74,0,0,1,1.43-2.29,33.12,33.12,0,0,1,7.89-8.12,25.31,25.31,0,0,1,7.76-3.81,15.22,15.22,0,0,1,3.84-.54,9.83,9.83,0,0,1,2.41.28,5.75,5.75,0,0,1,3.64,2.27,5.12,5.12,0,0,1,.88,3,7.81,7.81,0,0,1-1,3.7,13.63,13.63,0,0,1-3.31,3.84,20.34,20.34,0,0,1-5.88,3.23,10.27,10.27,0,0,1-3.48.79h0a8,8,0,0,1-2.6-.35,4.64,4.64,0,0,1-2.79-2.47l-.61-1.38-1,1.18a16.79,16.79,0,0,0-2.52,4,3.38,3.38,0,0,0,.25,3.67c.89,1.17,2.54,1.77,4.89,1.77h.49a37.3,37.3,0,0,0,8.05-1.29,76.28,76.28,0,0,0,9.16-3.06,66.85,66.85,0,0,0,8.46-4.09,5.28,5.28,0,0,1,2.59-.84c1,.08,1.55.29,1.81.64.08.11.34.46,0,1.31a5.13,5.13,0,0,1-2.34,2.05,102.29,102.29,0,0,1-15.78,7,54.23,54.23,0,0,1-11.84,2.73c-.85.07-1.65.11-2.42.11a14.49,14.49,0,0,1-5.32-.86,7,7,0,0,1-3.87-3.2,6.11,6.11,0,0,1-.65-2.33l-.11-1.37-1.27.67c-2,1.09-4.25,2.14-6.62,3.13a68.24,68.24,0,0,1-8,2.77,29.8,29.8,0,0,1-7.92,1.15c-3,0-5.13-.6-6.4-1.78a6.08,6.08,0,0,1-2-4.51l0-1.48-1.36.75c-1.45.81-3,1.61-4.65,2.42-2,1-4,1.86-6.05,2.67a36.76,36.76,0,0,1-5.87,1.84,20.82,20.82,0,0,1-4.36.51l-.68,0a4.59,4.59,0,0,1-3.17-1.24,4.9,4.9,0,0,1-1.55-3.39,13.2,13.2,0,0,1,.9-5.48l.76-2.16-3.74,2a13,13,0,0,1-4.65,1.62,17.33,17.33,0,0,1-2.36.16,15.45,15.45,0,0,1-2.27-.16,16,16,0,0,1-4.13-1.14,13.15,13.15,0,0,1-3.14-1.86l-.6-.5-.61.49a70.52,70.52,0,0,1-9.12,6.16A54.5,54.5,0,0,1,859,630.7a23.32,23.32,0,0,1-7.29,1.46h0c-2,0-3.38-.45-4.28-1.37a5.75,5.75,0,0,1-1.34-2.85,11.58,11.58,0,0,1,0-4.11,18.62,18.62,0,0,1,1.42-4.55,16.39,16.39,0,0,1,2.75-4.17L849,613.82l-1.5,1c-.68.44-1.45.92-2.33,1.46s-5.45,3.4-5.45,3.4c-.86.54-1.61,1-2.26,1.39l-1.38.82-.29.14c-1.26.8-2.75,1.7-4.5,2.73s-3.79,2.12-5.82,3.14a68.1,68.1,0,0,1-6.26,2.77,28.83,28.83,0,0,1-6,1.65A15.13,15.13,0,0,1,811,632.47ZM978.74,608.4a8.11,8.11,0,0,0-2.69.83,19.4,19.4,0,0,0-3,1.77,34.92,34.92,0,0,0-3.1,2.47l-.55.49.4.6a4.31,4.31,0,0,0,3.8,2,9.45,9.45,0,0,0,4.27-1,8.61,8.61,0,0,0,3.19-2.61,2.88,2.88,0,0,0,.07-3.65,2.37,2.37,0,0,0-2-.86h0Zm-197.65,0a8.23,8.23,0,0,0-2.7.83,19.35,19.35,0,0,0-3,1.77,34.92,34.92,0,0,0-3.1,2.47l-.55.49.39.6a4.33,4.33,0,0,0,3.81,2,9.48,9.48,0,0,0,4.27-1,8.69,8.69,0,0,0,3.19-2.61,2.89,2.89,0,0,0,.07-3.65,2.4,2.4,0,0,0-2-.86h0Zm-359.84,6.9A2.87,2.87,0,0,1,420,615a3.11,3.11,0,0,1-1.57-1.9,5.08,5.08,0,0,1,.52-3.7,26.87,26.87,0,0,1,7.05-9.07,48.11,48.11,0,0,1,11.18-7,74.29,74.29,0,0,1,14.19-4.74,109.76,109.76,0,0,1,16-2.45c3.18-.26,6.43-.38,9.65-.38q3.49,0,7,.19a105.69,105.69,0,0,1,16.14,2.16,5,5,0,0,1,2.68,1.31,2.79,2.79,0,0,1,.87,1.68,1.08,1.08,0,0,1-.58,1,1.84,1.84,0,0,1-1,.21,5.53,5.53,0,0,1-1.4-.2,76.42,76.42,0,0,0-12.73-2c-2.54-.19-5.18-.3-7.82-.3-2.29,0-4.64.08-7,.23a109.48,109.48,0,0,0-15.37,2.08,80.08,80.08,0,0,0-14.39,4.38,48.07,48.07,0,0,0-11.77,6.85,24.72,24.72,0,0,0-7.51,9.71,3.25,3.25,0,0,1-1.9,2A3.48,3.48,0,0,1,421.25,615.3Zm505.3-16.95a5.68,5.68,0,0,1-1.95-.34,3.69,3.69,0,0,1-2.4-2.21,3.52,3.52,0,0,1,.4-3.16,5.49,5.49,0,0,1,3.18-2.37,6.51,6.51,0,0,1,2.08-.36,5.73,5.73,0,0,1,1.95.35,3.69,3.69,0,0,1,2.39,2.2,3.51,3.51,0,0,1-.4,3.16,5.39,5.39,0,0,1-3.17,2.37A6.6,6.6,0,0,1,926.55,598.35Z"/><path class="cls-2" d="M520.61,468H418.27l13.24,32A177.63,177.63,0,0,0,520.61,468Z"/><path class="cls-3" d="M555.77,435.55a179.29,179.29,0,0,0,21.3-32.49H391.36l13.46,32.49Z"/><path class="cls-4" d="M417.94,143.19a177.78,177.78,0,0,0-102.66,32.48H520.61A177.79,177.79,0,0,0,417.94,143.19Z"/><path class="cls-5" d="M377.91,370.58H589.82a177.66,177.66,0,0,0,6-32.49H364.45Z"/><path class="cls-6" d="M589.82,273.12H337.54L351,305.61H595.84A177.82,177.82,0,0,0,589.82,273.12Z"/><path class="cls-7" d="M555.77,208.16H310.63l13.45,32.48h253A178.87,178.87,0,0,0,555.77,208.16Z"/><path class="cls-8" d="M321.37,234.09l-10.74-25.93a219.76,219.76,0,0,0-17-15.33,179.69,179.69,0,0,0-13.4,14.32c14.86,8,29.52,19.19,43.82,33.49Zm23.75,57.35-7.58-18.32c-23.42-23.42-47.81-38.38-72.46-45a178.73,178.73,0,0,0-14.3,28.59c34,.42,68,16.69,100.21,48.88Zm59.7,144.11L401,426.36l-9.65-23.3c-47.24-47.24-98.4-60.24-147.8-39a177.38,177.38,0,0,0,11.67,33.29C305.18,375,357,387.73,404.82,435.55Zm-26.91-65-5.08-12.26-8.38-20.23c-39.49-39.48-81.7-55-123.34-46.69a178.67,178.67,0,0,0-2.6,30.45c0,2.13.09,4.25.16,6.36C285.4,312,333.39,326.06,377.91,370.58ZM418.27,468c-46.33-46.33-96.42-59.71-144.93-40.22a179.32,179.32,0,0,0,25.4,27.76c44.64-12.82,90.23,1.94,132.67,44.33h.06Z"/><rect class="cls-9" x="640.48" y="159.17" width="4.43" height="357.35"/><path class="cls-10" d="M701.86,367.33,718,346.57c14.5,16.15,38.23,31.31,69.2,31.31,39.22,0,51.74-21.09,51.74-37.9,0-56.68-130.17-25.38-130.17-103.81,0-36.25,32.3-61,75.47-61,33.61,0,59.64,11.21,78.1,30.65L845.87,226c-16.47-18.12-39.54-26.36-63.6-26.36-26.36,0-45.15,14.17-45.15,34.94,0,49.43,130.17,21.09,130.17,103.14,0,32-21.75,64.59-81.06,64.59C748,402.26,720,387.76,701.86,367.33Zm427.34,30.06V179.75h27.35V397.39ZM896.77,288.57c0-67.56,49.76-113.7,113-113.7,38.88,0,65.9,18.79,83.37,43.5l-23.07,12.86c-12.52-18.46-35.26-32-60.3-32-48.12,0-84.7,36.91-84.7,89.31,0,52.07,36.58,89.31,84.7,89.31a73.32,73.32,0,0,0,60.3-32l23.4,12.85c-18.46,25.05-44.82,43.5-83.7,43.5C946.53,402.26,896.77,356.13,896.77,288.57ZM734.43,500.81c-19.65,0-32.57-14-32.57-32.39,0-17.68,13.46-32.57,32.39-32.57,11,0,17.68,3,24.14,8.52l-7,8.35c-4.84-4.13-9.6-6.73-17.58-6.73-11.58,0-20.37,10.05-20.37,22.25,0,13,8.52,22.52,21.35,22.52A25.65,25.65,0,0,0,750,486V474.25H733.9v-9.6h26.74V491A40.05,40.05,0,0,1,734.43,500.81Zm115.29-1.07-15.44-21.9H820.46v21.9h-11V436.92h28c14.44,0,23.33,7.63,23.33,19.92,0,10.41-6.2,16.69-15,19.12l17,23.78ZM836.53,447H820.46v21.09h16.16c7.89,0,12.92-4.13,12.92-10.59C849.54,450.56,844.69,447,836.53,447Zm97.41,53.84c-19.29,0-32.75-14.62-32.75-32.39s13.64-32.57,32.93-32.57,32.75,14.62,32.75,32.39S953.24,500.81,933.94,500.81Zm0-54.82c-12.47,0-21.17,10-21.17,22.25s8.88,22.43,21.35,22.43,21.18-10,21.18-22.25S946.42,446,933.94,446Zm131.8,26.56c0,18.75-10.59,28.17-27,28.17S1012,491.3,1012,473.09V436.92h11v35.72c0,11.66,6,17.94,15.89,17.94s15.79-5.92,15.79-17.49V436.92h11Zm65.69,7H1119v20.19h-11V436.92h24.77c14.63,0,23.87,8.26,23.87,21.09C1156.55,472.19,1145.24,479.55,1131.43,479.55Zm.36-32.58H1119v22.62h12.84c8.34,0,13.54-4.58,13.54-11.31C1145.33,450.83,1140,447,1131.79,447Z"/></g></svg>